<?xml version="1.0" standalone="no"?>
<!DOCTYPE svg PUBLIC "-//W3C//DTD SVG 20010904//EN"
 "http://www.w3.org/TR/2001/REC-SVG-20010904/DTD/svg10.dtd">
<svg version="1.0" xmlns="http://www.w3.org/2000/svg"
 width="900.000000pt" height="900.000000pt" viewBox="0 0 900.000000 900.000000"
 preserveAspectRatio="xMidYMid meet">

<g transform="translate(0.000000,900.000000) scale(0.100000,-0.100000)"
fill="#000000" stroke="none">
<path d="M4542 7360 c-57 -19 -108 -60 -124 -100 -20 -46 -17 -189 4 -260 22
-72 42 -100 70 -100 10 0 18 -7 18 -17 0 -10 3 -28 6 -40 14 -52 -120 -122
-237 -124 -50 -1 -169 -21 -184 -31 -6 -4 -17 -3 -24 2 -20 11 -73 -6 -93 -31
-10 -12 -18 -32 -18 -44 0 -19 -7 -24 -40 -30 -41 -7 -60 -27 -57 -58 2 -13
-21 -25 -101 -52 -56 -19 -133 -39 -170 -45 -85 -14 -140 -30 -255 -76 -105
-42 -228 -83 -272 -90 -38 -7 -118 -55 -174 -105 -38 -34 -43 -43 -38 -71 2
-18 10 -47 17 -64 12 -29 11 -35 -16 -78 -16 -26 -42 -63 -58 -83 -27 -31 -28
-37 -16 -56 44 -70 62 -114 79 -190 20 -92 11 -78 284 -426 37 -47 75 -97 84
-111 29 -43 106 -133 151 -174 37 -34 42 -43 36 -69 -5 -26 -4 -28 14 -18 14
7 24 7 38 -4 19 -13 19 -14 -1 -51 -11 -21 -29 -50 -41 -64 -11 -14 -30 -42
-42 -62 l-23 -36 27 -27 c14 -14 39 -29 56 -32 16 -3 35 -14 41 -24 7 -11 17
-19 24 -19 6 0 25 -12 42 -26 17 -14 31 -23 31 -20 0 4 19 -3 41 -15 34 -17
43 -18 50 -7 7 10 13 9 27 -8 9 -12 25 -24 35 -27 9 -4 17 -13 17 -22 0 -10
10 -15 29 -15 17 0 32 -4 36 -10 3 -5 12 -7 20 -3 8 3 15 0 15 -6 0 -6 12 -18
26 -28 26 -17 27 -16 48 8 11 14 28 29 38 32 18 6 140 -8 178 -22 14 -5 34
-12 45 -16 20 -8 32 -10 145 -23 50 -6 64 -11 61 -22 -11 -38 -4 -179 10 -201
24 -38 36 -94 54 -239 19 -161 15 -184 -40 -215 -37 -21 -40 -25 -39 -64 1
-35 8 -49 40 -82 l39 -40 0 -165 0 -164 -247 0 c-231 0 -304 -8 -208 -24 26
-4 54 -19 78 -40 l37 -34 3 -614 c2 -445 -1 -620 -9 -641 -17 -40 -62 -74
-109 -82 -110 -19 -9 -25 394 -25 l433 0 38 107 c21 60 48 136 61 171 31 83
10 82 -34 -2 -46 -89 -93 -140 -160 -173 -56 -28 -60 -28 -264 -31 l-208 -3 0
310 0 311 180 0 c145 0 187 -3 211 -16 31 -15 59 -66 59 -104 0 -11 5 -20 10
-20 6 0 10 63 10 170 0 107 -4 170 -10 170 -5 0 -10 -9 -10 -20 0 -11 -7 -36
-15 -56 -23 -56 -56 -64 -260 -64 l-175 0 0 320 0 320 229 0 c219 0 229 -1
256 -22 30 -24 55 -74 55 -113 0 -14 5 -25 10 -25 6 0 10 51 10 134 0 129 -1
134 -20 129 -19 -5 -20 0 -21 68 -3 184 -1 205 20 245 27 50 27 95 0 120 -12
10 -32 42 -44 69 -23 52 -23 89 0 295 20 183 22 220 13 226 -4 3 -8 16 -8 30
0 28 31 44 85 44 19 0 37 5 40 11 7 10 48 30 75 35 8 1 44 12 80 23 36 11 83
21 105 21 22 0 50 7 61 15 12 8 70 21 130 30 111 17 188 48 261 108 15 13 69
50 118 82 50 32 113 73 140 91 28 18 69 58 90 89 22 31 50 69 61 83 27 34 80
138 100 198 8 25 33 75 54 109 64 105 90 162 111 246 36 144 29 177 -58 309
-27 41 -52 80 -56 86 -4 7 5 28 19 49 24 36 24 39 11 84 -8 25 -20 64 -26 86
-16 58 -47 89 -126 123 -38 17 -135 60 -215 95 -130 58 -170 73 -219 83 -82
16 -211 79 -211 103 0 10 -7 32 -16 50 -12 24 -21 30 -33 25 -44 -18 -61 -17
-61 6 0 12 -14 35 -31 51 -25 23 -40 29 -75 29 -26 0 -44 5 -44 11 0 6 -9 9
-20 6 -12 -3 -39 5 -63 19 -23 13 -62 26 -87 30 -95 13 -165 76 -194 173 -28
97 -20 123 52 164 92 52 101 100 43 237 -62 149 -187 215 -319 170z m-421
-1001 c9 -17 17 -20 44 -15 32 6 32 6 39 -42 3 -26 12 -57 20 -67 7 -11 16
-40 20 -65 6 -40 39 -162 65 -243 21 -63 -17 -83 -128 -67 -42 6 -98 17 -126
25 -45 12 -121 25 -490 81 -378 57 -518 76 -547 76 -23 -1 -23 11 -1 46 45 71
50 73 230 94 196 22 361 57 453 97 54 24 273 81 310 81 5 0 10 -6 10 -14 0
-30 23 -28 47 3 29 37 38 38 54 10z m899 -93 c0 -20 16 -23 69 -15 50 7 62 -1
82 -53 l10 -26 50 23 50 23 67 -20 c37 -11 90 -32 117 -46 113 -58 328 -119
494 -140 58 -7 61 -11 82 -80 17 -59 5 -70 -58 -49 -26 9 -50 12 -53 7 -3 -5
-72 -4 -155 1 -100 6 -187 6 -260 -1 -60 -6 -135 -11 -165 -11 -30 -1 -98 -5
-151 -10 -63 -6 -112 -6 -142 0 -31 7 -54 7 -75 0 -18 -6 -43 -7 -63 -2 -28 8
-34 14 -37 39 -4 51 62 279 92 314 14 17 26 38 26 46 0 8 5 14 10 14 6 0 10
-6 10 -14z"/>
<path d="M4030 6286 c0 -8 4 -17 9 -20 5 -4 7 3 4 14 -6 23 -13 26 -13 6z"/>
<path d="M2620 4512 c0 -4 5 -13 12 -20 18 -18 28 -15 28 8 0 13 -7 20 -20 20
-11 0 -20 -4 -20 -8z"/>
<path d="M2560 3320 c0 -5 5 -10 10 -10 6 0 10 5 10 10 0 6 -4 10 -10 10 -5 0
-10 -4 -10 -10z"/>
<path d="M8638 3134 c-4 -3 -48 -12 -100 -20 -65 -10 -191 -14 -421 -14 -309
0 -384 -7 -274 -25 29 -5 52 -18 75 -42 l32 -34 0 -620 c0 -671 1 -656 -54
-692 -13 -9 -43 -19 -65 -23 -113 -18 -5 -24 396 -22 l437 3 57 160 c63 174
63 175 50 175 -6 0 -26 -31 -46 -69 -45 -85 -89 -133 -158 -169 -51 -26 -56
-27 -264 -30 l-213 -4 0 311 0 311 181 0 c230 0 259 -11 271 -108 2 -12 8 -23
13 -22 13 0 14 319 0 323 -5 1 -12 -15 -16 -36 -3 -22 -18 -50 -33 -65 l-26
-27 -195 -3 -195 -3 0 320 0 321 230 0 c197 0 234 -2 256 -16 33 -22 54 -64
54 -109 0 -25 4 -35 13 -33 8 3 13 40 15 128 2 112 -4 151 -20 134z"/>
<path d="M860 3115 c-232 -49 -401 -178 -504 -382 -71 -142 -95 -367 -58 -546
54 -258 222 -453 461 -531 110 -37 210 -49 331 -43 207 12 361 78 496 213 l54
54 0 200 c0 196 0 200 23 214 12 8 41 18 65 22 93 15 31 24 -163 24 -195 0
-258 -10 -160 -24 24 -4 54 -15 67 -26 22 -18 23 -23 26 -223 l3 -204 -43 -37
c-61 -53 -184 -112 -274 -131 -105 -24 -265 -17 -349 15 -182 70 -306 213
-367 426 -29 104 -33 352 -5 454 62 232 218 404 412 455 70 18 231 20 307 4
167 -36 289 -137 353 -294 26 -64 51 -88 41 -39 -3 16 -13 83 -21 148 -9 66
-18 123 -21 127 -10 17 -176 89 -249 109 -103 28 -328 36 -425 15z"/>
<path d="M3137 3120 c-170 -43 -283 -218 -255 -397 18 -116 38 -143 296 -382
145 -134 247 -237 262 -263 32 -57 35 -182 6 -242 -25 -50 -75 -100 -129 -128
-58 -31 -212 -33 -271 -4 -90 45 -143 131 -153 245 -6 69 -16 90 -27 54 -14
-48 -26 -144 -26 -204 0 -66 1 -68 38 -99 79 -66 303 -108 423 -80 102 24 189
86 242 171 55 90 62 267 15 369 -22 48 -59 87 -270 283 -273 252 -288 272
-288 384 0 72 25 127 75 172 54 47 94 61 172 61 70 0 137 -23 176 -58 28 -25
57 -87 57 -122 0 -20 5 -30 15 -30 13 0 15 21 15 129 l0 129 -72 6 c-159 13
-265 15 -301 6z"/>
<path d="M2010 3091 c0 -5 19 -11 41 -15 56 -9 76 -21 99 -59 19 -31 20 -56
20 -645 0 -663 1 -649 -54 -685 -13 -9 -43 -19 -65 -23 -96 -15 -26 -24 194
-24 220 0 290 9 194 24 -22 4 -52 14 -65 23 -55 36 -54 21 -54 688 0 615 0
617 21 647 24 33 73 58 114 58 14 0 25 5 25 10 0 6 -85 10 -235 10 -129 0
-235 -4 -235 -9z"/>
<path d="M5260 3091 c0 -5 19 -11 41 -15 56 -9 76 -21 99 -59 19 -31 20 -56
20 -645 0 -663 1 -649 -54 -685 -13 -9 -43 -19 -65 -23 -113 -18 -5 -24 396
-22 l438 3 57 160 c62 172 63 175 49 175 -6 0 -26 -32 -47 -70 -45 -86 -94
-138 -160 -170 -46 -23 -61 -25 -256 -28 l-208 -4 0 642 c0 641 0 642 21 672
24 33 73 58 114 58 14 0 25 5 25 10 0 6 -85 10 -235 10 -129 0 -235 -4 -235
-9z"/>
<path d="M6530 3091 c0 -5 17 -11 38 -15 46 -7 86 -36 107 -76 22 -43 22
-1217 0 -1260 -21 -40 -59 -67 -105 -75 -110 -19 -9 -25 394 -25 l434 0 20 58
c11 31 38 108 61 170 46 126 37 152 -17 48 -46 -89 -93 -140 -160 -173 -56
-28 -60 -28 -265 -31 l-207 -3 2 646 3 647 37 34 c24 21 52 36 78 40 94 15 25
24 -190 24 -126 0 -230 -4 -230 -9z"/>
</g>
</svg>
